<?xml version="1.0" encoding="UTF-8" standalone="no"?>
<!-- Created with Inkscape (http://www.inkscape.org/) -->

<svg
   xmlns:dc="http://purl.org/dc/elements/1.1/"
   xmlns:cc="http://creativecommons.org/ns#"
   xmlns:rdf="http://www.w3.org/1999/02/22-rdf-syntax-ns#"
   xmlns:svg="http://www.w3.org/2000/svg"
   xmlns="http://www.w3.org/2000/svg"
   xmlns:sodipodi="http://sodipodi.sourceforge.net/DTD/sodipodi-0.dtd"
   xmlns:inkscape="http://www.inkscape.org/namespaces/inkscape"
   width="153.87679mm"
   height="20.228224mm"
   viewBox="0 0 545.2327 71.674808"
   id="svg4276"
   version="1.1"
   inkscape:version="0.91 r13725"
   sodipodi:docname="logo_white.svg">
  <defs
     id="defs4278" />
  <sodipodi:namedview
     id="base"
     pagecolor="#ffffff"
     bordercolor="#666666"
     borderopacity="1.0"
     inkscape:pageopacity="0.0"
     inkscape:pageshadow="2"
     inkscape:zoom="0.35"
     inkscape:cx="-160.14518"
     inkscape:cy="29.656305"
     inkscape:document-units="px"
     inkscape:current-layer="layer1"
     showgrid="false"
     fit-margin-top="0"
     fit-margin-left="0"
     fit-margin-right="0"
     fit-margin-bottom="0"
     inkscape:window-width="1366"
     inkscape:window-height="705"
     inkscape:window-x="-8"
     inkscape:window-y="-8"
     inkscape:window-maximized="1" />
  <metadata
     id="metadata4281">
    <rdf:RDF>
      <cc:Work
         rdf:about="">
        <dc:format>image/svg+xml</dc:format>
        <dc:type
           rdf:resource="http://purl.org/dc/dcmitype/StillImage" />
        <dc:title></dc:title>
      </cc:Work>
    </rdf:RDF>
  </metadata>
  <g
     inkscape:label="Layer 1"
     inkscape:groupmode="layer"
     id="layer1"
     transform="translate(-99.430895,-490.3437)">
    <g
       transform="translate(15.415384,408.38191)"
       style="font-style:normal;font-variant:normal;font-weight:bold;font-stretch:normal;font-size:40px;line-height:125%;font-family:Lato;-inkscape-font-specification:'Lato Bold';text-align:start;letter-spacing:-3px;word-spacing:0px;text-anchor:start;fill:#ffffff;fill-opacity:1;stroke:none;stroke-width:1px;stroke-linecap:butt;stroke-linejoin:miter;stroke-opacity:1"
       id="text4019">
      <path
         inkscape:connector-curvature="0"
         d="m 147.47254,147.57214 c -0.79101,0.83496 -1.62597,1.18653 -2.76855,1.18653 -2.06543,0 -3.16407,-1.36231 -4.04297,-5.84473 l -1.88965,-9.36035 c -1.40625,-7.33887 -7.38281,-11.03027 -19.6875,-11.7334 17.18262,-1.66992 22.0166,-9.53613 22.0166,-17.44629 0,-10.590819 -8.83301,-15.64453 -27.11426,-15.64453 -2.3291,0 -8.4375,0.175781 -14.458004,0.175781 -5.756836,0 -12.084961,-0.08789 -15.512695,-0.263672 l 0,1.801758 c 5.405273,0.263672 6.416015,1.186524 6.416015,7.734375 l 0,44.648438 c 0,6.54785 -0.922851,7.4707 -6.416015,7.73437 l 0,1.80176 c 3.427734,-0.17578 9.536132,-0.26367 16.040039,-0.26367 5.58105,0 11.51367,0.0879 15.0293,0.26367 l 0,-1.80176 c -5.40528,-0.26367 -6.41602,-1.18652 -6.41602,-7.73437 l 0,-20.69824 4.08691,0 c 4.57032,0 6.1084,5.40527 7.16309,12.78808 l 1.36231,8.96485 c 1.09863,7.38281 6.0205,9.75586 13.88671,9.75586 5.49317,0 9.79981,-1.18653 13.49122,-4.87793 l -1.18653,-1.18653 z M 113.54676,90.443237 c 6.37207,0 8.65723,5.493164 8.65723,14.941403 0,8.26172 -1.88965,14.94141 -11.07422,14.94141 l -2.46094,0 0,-22.148438 c 0,-6.196289 0.83496,-7.734375 4.87793,-7.734375 z"
         style="font-style:normal;font-variant:normal;font-weight:900;font-stretch:normal;font-size:90px;font-family:'Playfair Display';-inkscape-font-specification:'Playfair Display Heavy';letter-spacing:-3px;fill:#ffffff"
         id="path4227" />
      <path
         inkscape:connector-curvature="0"
         d="m 173.34461,143.79285 c -4.87793,0 -10.37109,-3.2959 -10.37109,-15.9961 0,-1.09863 0,-2.19726 0.0879,-3.25195 l 23.24707,0 c 0,-14.50195 -6.50391,-20.1709 -17.00684,-20.1709 -13.05175,0 -23.15918,7.38281 -23.15918,24.69727 0,18.14941 9.27246,24.56543 20.83008,24.56543 10.67871,0 16.52344,-8.042 18.8086,-15.29297 l -1.53809,-0.57129 c -3.95508,5.49316 -8.48145,6.02051 -10.89844,6.02051 z m -4.70215,-37.30957 c 3.33985,0 4.61426,7.55859 4.52637,16.34765 l -10.41504,0 c 0.61524,-11.90918 2.72461,-16.34765 5.88867,-16.34765 z"
         style="font-style:normal;font-variant:normal;font-weight:900;font-stretch:normal;font-size:90px;font-family:'Playfair Display';-inkscape-font-specification:'Playfair Display Heavy';letter-spacing:-3px;fill:#ffffff"
         id="path4229" />
      <path
         inkscape:connector-curvature="0"
         d="m 222.28797,104.3739 c -6.45996,0 -11.42578,1.97754 -14.32617,6.76758 l 0,-6.45996 c -4.48242,0.8789 -9.62402,1.23047 -15.64453,1.23047 -1.80176,0 -3.69141,-0.0879 -5.58106,-0.26367 l 0,1.88964 c 3.7793,0 5.05371,2.50489 5.05371,7.91016 l 0,28.56445 c 0,5.00977 -1.3623,6.45996 -5.05371,6.45996 l 0,1.88965 c 2.59278,-0.0879 8.48145,-0.35156 13.49121,-0.35156 4.70215,0 9.62403,0.26367 11.90918,0.35156 l 0,-1.88965 c -3.07617,0 -4.1748,-1.45019 -4.1748,-6.45996 l 0,-28.47656 c 0,-3.7793 3.16406,-6.45996 6.50391,-6.45996 3.12011,0 4.39453,1.88965 4.39453,5.66895 l 0,29.26757 c 0,5.00977 -1.05469,6.45996 -4.13086,6.45996 l 0,1.88965 c 2.41699,-0.0879 7.73437,-0.35156 12.78808,-0.35156 4.65821,0 10.15137,0.26367 12.56836,0.35156 l 0,-1.88965 c -3.64746,0 -5.00976,-1.45019 -5.00976,-6.45996 l 0,-24.38965 c 0,-6.15234 -0.83496,-9.49218 -2.63672,-11.6455 -1.71387,-2.06543 -4.6582,-3.60352 -10.15137,-3.60352 z"
         style="font-style:normal;font-variant:normal;font-weight:900;font-stretch:normal;font-size:90px;font-family:'Playfair Display';-inkscape-font-specification:'Playfair Display Heavy';letter-spacing:-3px;fill:#ffffff"
         id="path4231" />
      <path
         inkscape:connector-curvature="0"
         d="m 268.06727,143.79285 c -4.87793,0 -10.3711,-3.2959 -10.3711,-15.9961 0,-1.09863 0,-2.19726 0.0879,-3.25195 l 23.24707,0 c 0,-14.50195 -6.50391,-20.1709 -17.00684,-20.1709 -13.05176,0 -23.15918,7.38281 -23.15918,24.69727 0,18.14941 9.27246,24.56543 20.83008,24.56543 10.67871,0 16.52344,-8.042 18.80859,-15.29297 l -1.53808,-0.57129 c -3.95508,5.49316 -8.48145,6.02051 -10.89844,6.02051 z m -4.70215,-37.30957 c 3.33984,0 4.61426,7.55859 4.52637,16.34765 l -10.41504,0 c 0.61523,-11.90918 2.72461,-16.34765 5.88867,-16.34765 z"
         style="font-style:normal;font-variant:normal;font-weight:900;font-stretch:normal;font-size:90px;font-family:'Playfair Display';-inkscape-font-specification:'Playfair Display Heavy';letter-spacing:-3px;fill:#ffffff"
         id="path4233" />
      <path
         inkscape:connector-curvature="0"
         d="m 304.92567,104.3739 c -6.28418,0 -10.72266,1.01074 -14.41407,2.90039 -3.208,1.71387 -5.58105,4.48242 -5.58105,8.26172 0,4.43848 2.90039,7.86621 7.38281,7.86621 5.22949,0 8.65723,-3.33984 8.65723,-7.55859 0,-4.08692 -2.15332,-6.67969 -6.02051,-8.12988 1.31836,-0.87891 3.20801,-1.53809 4.74609,-1.53809 5.75684,0 6.67969,4.61426 6.67969,7.38281 l 0,8.04199 c 0,4.04297 -5.49316,5.84473 -12.52441,8.34961 -7.91016,2.59278 -11.42578,6.5918 -11.42578,12.7002 0,6.19629 4.13086,10.32715 11.33789,10.32715 5.58105,0 10.37109,-2.68067 12.87597,-6.81153 0.0879,3.60352 2.50489,6.81153 9.27246,6.81153 5.14161,0 8.83301,-0.87891 11.68946,-3.2959 l -0.87891,-1.53809 c -0.83496,0.61524 -1.71387,1.31836 -2.8125,1.31836 -0.9668,0 -1.3623,-0.96679 -1.3623,-3.86719 l 0,-24.08203 c 0,-6.24023 -0.43946,-10.01953 -2.94434,-12.6123 -3.42773,-3.60352 -8.39355,-4.52637 -14.67773,-4.52637 z m 1.45019,39.90235 c -1.09863,1.14257 -2.06543,1.49414 -3.33984,1.49414 -2.59278,0 -4.57031,-1.66993 -4.57031,-6.37207 0,-4.39454 1.71386,-7.5586 4.39453,-10.15137 1.27441,-1.27442 2.76855,-2.72461 3.51562,-3.95508 l 0,18.98438 z"
         style="font-style:normal;font-variant:normal;font-weight:900;font-stretch:normal;font-size:90px;font-family:'Playfair Display';-inkscape-font-specification:'Playfair Display Heavy';letter-spacing:-3px;fill:#ffffff"
         id="path4235" />
      <path
         inkscape:connector-curvature="0"
         d="m 374.56727,104.68152 c -4.48242,0.8789 -9.62403,1.23047 -15.64453,1.23047 -1.80176,0 -3.69141,-0.0879 -5.58106,-0.26367 l 0,1.88964 c 3.7793,0 5.05371,2.50489 5.05371,7.91016 l 0,27.02637 c 0,3.77929 -3.16406,6.45996 -6.5039,6.45996 -3.12012,0 -4.39453,-1.88965 -4.39453,-5.66895 l 0,-38.58398 c -4.52637,0.8789 -9.62403,1.23047 -15.64454,1.23047 -1.80175,0 -3.6914,-0.0879 -5.58105,-0.26367 l 0,1.88964 c 3.7793,0 5.00977,2.50489 5.00977,7.91016 l 0,22.9834 c 0,6.1084 0.83496,9.44824 2.63671,11.60156 1.71387,2.06543 4.65821,3.60352 10.15137,3.60352 6.45996,0 11.42578,-1.97754 14.32617,-6.76758 l 0,6.5039 c 4.48243,-0.92285 9.62403,-1.27441 15.64453,-1.27441 1.80176,0 3.69141,0.0879 5.58106,0.26367 l 0,-1.88965 c -3.7793,0 -5.05371,-2.50488 -5.05371,-7.91015 l 0,-37.88086 z"
         style="font-style:normal;font-variant:normal;font-weight:900;font-stretch:normal;font-size:90px;font-family:'Playfair Display';-inkscape-font-specification:'Playfair Display Heavy';letter-spacing:-3px;fill:#ffffff"
         id="path4237" />
      <path
         d="m 436.78825,94.588745 c -2.03125,0 -4.02344,0.351563 -5.85937,1.132813 -2.14844,0.976562 -3.98438,2.734375 -3.98438,5.039062 0,2.14844 1.52344,3.35938 3.59375,3.35938 2.73438,0 5.27344,-2.07032 5.27344,-4.570317 0,-1.171875 -0.54688,-2.382813 -1.67969,-3.046875 0.3125,-0.46875 1.28906,-0.703125 2.57813,-0.703125 4.45312,0 7.89062,2.96875 7.89062,6.874997 0,4.02344 -3.51562,6.64063 -8.24219,8.90625 -5.97656,2.85157 -16.875,6.44532 -20.70312,7.89063 -8.16406,3.04687 -13.28125,6.64062 -13.28125,13.20312 0,6.01563 4.33594,7.85157 8.63281,7.85157 5.42969,0 8.08594,-2.89063 9.53125,-5.27344 l -1.05469,-0.74219 c -0.70312,1.13281 -3.28125,4.72656 -8.16406,4.72656 -3.59375,0 -6.79687,-1.91406 -6.79687,-5.35156 0,-4.41406 5.11718,-6.64062 8.39843,-7.92969 2.69532,-1.05468 6.36719,-2.38281 10.15625,-3.78906 3.78907,2.73438 5.39063,6.875 5.39063,10.50781 0,9.0625 -9.60938,14.88282 -22.03125,14.88282 -11.5625,0 -20.07813,-5.03907 -20.07813,-14.64844 0,-7.26563 4.96094,-13.59375 12.26563,-15.74219 1.09375,0.54688 3.51562,1.75781 5.50781,1.75781 1.21094,0 2.5,-0.46875 2.5,-1.67968 0,-1.13282 -1.05469,-1.67969 -2.89062,-1.67969 -0.97657,0 -3.125,0.15625 -5.03907,0.46875 -1.28906,-2.14844 -1.75781,-4.45313 -1.75781,-6.64063 0,-6.875 4.72656,-11.91406 11.28906,-11.91406 4.375,0 7.73438,2.226563 7.73438,5.85938 0,2.77343 -2.07031,4.375 -4.96094,4.375 l -0.15625,1.44531 c 3.20313,0 6.79688,-1.91406 6.79688,-6.01563 0,-4.140622 -3.82813,-6.953122 -9.84375,-6.953122 -7.1875,0 -15.82032,4.023442 -15.82032,11.367192 0,3.51562 1.91407,6.95312 5.58594,8.94531 -9.76562,2.73437 -17.1875,10.50781 -17.1875,20.11719 0,10.54687 8.94531,16.875 23.04688,16.875 16.95312,0 26.64062,-9.29688 26.64062,-19.76563 0,-4.92187 -2.14844,-8.86719 -5.82031,-11.99219 4.80469,-1.75781 9.64844,-3.59375 12.77344,-5.11718 6.875,-3.47657 9.76562,-7.53907 9.76562,-12.89063 0,-6.40625 -4.17969,-9.140625 -10,-9.140625 z"
         style="font-style:italic;font-variant:normal;font-weight:normal;font-stretch:normal;font-size:80px;font-family:'Playfair Display';-inkscape-font-specification:'Playfair Display Italic';letter-spacing:0px;fill:#ffffff"
         id="path4239"
         inkscape:connector-curvature="0" />
      <path
         d="m 506.36833,88.641479 c -1.80176,0.175782 -4.79004,0.263672 -7.4707,0.263672 -3.33985,0 -7.64649,-0.08789 -10.06348,-0.263672 l 0,1.801758 c 8.52539,1.186524 9.05273,3.779297 9.05273,15.820313 l 0,21.26953 -36.78222,-38.891601 c -2.24121,0.175782 -5.31739,0.263672 -8.30567,0.263672 -2.68066,0 -5.66894,-0.08789 -7.4707,-0.263672 l 0,1.801758 c 5.40527,0.263672 6.41602,1.186524 6.41602,7.734375 l 0,38.364258 c 0,10.15137 -0.92286,12.83203 -6.41602,14.01855 l 0,1.80176 c 1.80176,-0.17578 4.79004,-0.26367 7.4707,-0.26367 3.33985,0 7.69043,0.0879 10.10743,0.26367 l 0,-1.80176 c -8.56934,-1.18652 -9.09668,-3.77929 -9.09668,-15.82031 l 0,-25.92773 39.85839,43.5498 c 1.18653,-0.0879 2.28516,-0.13183 3.38379,-0.13183 1.05469,0 2.06543,0.0439 2.94434,0.13183 l 0,-47.90039 c 0,-10.151365 0.87891,-12.832029 6.37207,-14.018553 l 0,-1.801758 z"
         style="font-style:normal;font-variant:normal;font-weight:900;font-stretch:normal;font-size:90px;font-family:'Playfair Display';-inkscape-font-specification:'Playfair Display Heavy';letter-spacing:-3px;fill:#ffffff"
         id="path4241"
         inkscape:connector-curvature="0" />
      <path
         d="m 519.71599,81.961792 c -6.32813,0 -9.79981,2.636719 -9.79981,7.77832 0,5.097657 3.47168,7.734375 9.79981,7.734375 6.19628,0 9.7998,-2.636718 9.7998,-7.734375 0,-5.141601 -3.60352,-7.77832 -9.7998,-7.77832 z m 8.61328,22.719728 c -4.48242,0.8789 -9.62403,1.23047 -15.64453,1.23047 -1.80176,0 -3.69141,-0.0879 -5.58106,-0.26367 l 0,1.88964 c 3.7793,0 5.05371,2.50489 5.05371,7.91016 l 0,28.56445 c 0,5.00977 -1.3623,6.45996 -5.05371,6.45996 l 0,1.88965 c 2.59277,-0.0879 8.48145,-0.35156 13.49121,-0.35156 5.05371,0 10.3711,0.26367 12.78809,0.35156 l 0,-1.88965 c -3.69141,0 -5.05371,-1.45019 -5.05371,-6.45996 l 0,-39.33105 z"
         style="font-style:normal;font-variant:normal;font-weight:900;font-stretch:normal;font-size:90px;font-family:'Playfair Display';-inkscape-font-specification:'Playfair Display Heavy';letter-spacing:-3px;fill:#ffffff"
         id="path4243"
         inkscape:connector-curvature="0" />
      <path
         d="m 557.76091,104.3739 c -13.05176,0 -23.15918,7.38281 -23.15918,24.69727 0,18.14941 9.66797,24.56543 21.70898,24.56543 10.72266,0 16.56739,-8.042 18.8086,-15.29297 l -1.53809,-0.57129 c -3.95508,5.49316 -8.4375,6.02051 -10.89844,6.02051 -5.27343,0 -11.25,-3.2959 -11.25,-15.9961 0,-9.00879 1.88965,-20.78613 10.45899,-20.78613 1.62597,0 2.76855,0.43945 3.60351,1.05469 -3.95508,1.09863 -7.38281,4.52636 -7.38281,9.00879 0,4.79004 2.98828,8.12988 8.26172,8.12988 5.05371,0 8.65723,-3.82324 8.65723,-8.74512 0,-4.13086 -2.15332,-7.4707 -5.40528,-9.36035 -2.41699,-1.45019 -6.63574,-2.72461 -11.86523,-2.72461 z"
         style="font-style:normal;font-variant:normal;font-weight:900;font-stretch:normal;font-size:90px;font-family:'Playfair Display';-inkscape-font-specification:'Playfair Display Heavy';letter-spacing:-3px;fill:#ffffff"
         id="path4245"
         inkscape:connector-curvature="0" />
      <path
         d="m 611.36247,118.56824 2.3291,-2.28516 c 4.48242,-4.52637 9.00879,-7.64648 13.31543,-8.83301 l 0,-1.80175 c -2.3291,0.17578 -8.61328,0.26367 -12.30469,0.26367 -2.90039,0 -7.38281,-0.0879 -10.81054,-0.26367 l 0,1.80175 c 4.13086,0.35157 7.20703,2.68067 7.20703,5.84473 0,1.75781 -0.9668,3.7793 -3.16406,5.84473 l -6.94336,6.5039 c -1.05469,1.05469 -2.417,1.27442 -3.86719,1.31836 l 0,-44.999998 c -4.48242,0.922852 -9.62402,1.274414 -15.64453,1.274414 -1.80176,0 -3.69141,-0.08789 -5.58106,-0.263672 l 0,1.889649 c 3.7793,0 5.05371,2.504882 5.05371,7.910156 l 0,51.240231 c 0,5.00977 -1.3623,6.45996 -5.05371,6.45996 l 0,1.88965 c 2.59278,-0.0879 8.4375,-0.35156 13.49121,-0.35156 5.05371,0 10.3711,0.26367 12.78809,0.35156 l 0,-1.88965 c -3.69141,0 -5.05371,-1.45019 -5.05371,-6.45996 l 0,-15.33691 c 1.23047,0.0879 2.15332,0.57129 2.90039,1.97754 l 7.91016,16.74316 c 0.21972,0.52735 0.35156,0.9668 0.35156,1.40625 0,1.05469 -0.83496,1.66992 -2.59278,1.66992 l 0,1.88965 c 2.417,-0.0879 7.82227,-0.35156 12.7002,-0.35156 4.13086,0 8.78906,0.26367 10.85449,0.35156 l 0,-1.88965 c -1.71386,-0.8789 -2.59277,-2.90039 -3.60351,-4.70214 l -14.28223,-27.20215 z"
         style="font-style:normal;font-variant:normal;font-weight:900;font-stretch:normal;font-size:90px;font-family:'Playfair Display';-inkscape-font-specification:'Playfair Display Heavy';letter-spacing:-3px;fill:#ffffff"
         id="path4247"
         inkscape:connector-curvature="0" />
    </g>
  </g>
</svg>
